<?xml version="1.0" encoding="iso-8859-1"?>
<!-- Generator: Adobe Illustrator 19.0.0, SVG Export Plug-In . SVG Version: 6.00 Build 0)  -->
<svg version="1.1" id="Layer_1" xmlns="http://www.w3.org/2000/svg" xmlns:xlink="http://www.w3.org/1999/xlink" x="0px" y="0px"
	 viewBox="0 0 512 512"  xml:space="preserve">
<g>
	<g>
		<path d="M147.424,385.311h-44.33L35.669,270.995l14.023-22.027c-4.492-8.849-7.704-18.347-9.489-28.284
			c-0.675-3.746-1.128-7.506-1.388-11.265L0,270.389l67.783,114.922H41.39c-19.587,0-35.521,15.935-35.521,35.521v28.718h177.076
			v-28.718C182.945,401.246,167.01,385.311,147.424,385.311z"/>
	</g>
</g>
<g>
	<g>
		<path d="M480.262,62.45H156.431c-17.5,0-31.738,14.237-31.738,31.738v6.639c11.544-1.909,23.389-1.845,35.107,0.26
			c20.71,3.721,39.546,13.577,54.471,28.502l20.562,20.562L125.934,259.048H512V94.188C512,76.687,497.762,62.45,480.262,62.45z"/>
	</g>
</g>
<g>
	<g>
		<path d="M124.693,289.462v42.514c0,17.5,14.237,31.737,31.738,31.737h90.769l-5.363,55.423h-25.101v30.414h22.158h158.903h22.158
			v-30.414h-25.101l-5.362-55.423h90.768c17.5,0,31.738-14.237,31.738-31.737v-42.514H124.693z"/>
	</g>
</g>
<g>
	<g>
		<path d="M112.419,135.94l-9.507,4.158L59.666,96.851l-23.701,23.701l43.246,43.246l-4.157,9.507
			c-11.869,27.147-6.271,58.158,14.219,79.393l102.54-102.538C170.577,129.668,139.567,124.072,112.419,135.94z"/>
	</g>
</g>
<g>
</g>
<g>
</g>
<g>
</g>
<g>
</g>
<g>
</g>
<g>
</g>
<g>
</g>
<g>
</g>
<g>
</g>
<g>
</g>
<g>
</g>
<g>
</g>
<g>
</g>
<g>
</g>
<g>
</g>
</svg>
